<svg xmlns="http://www.w3.org/2000/svg" xmlns:xlink="http://www.w3.org/1999/xlink" version="1.1" width="56" height="56" enable-background="new 0 0 56 56" xml:space="preserve" style=""><rect id="backgroundrect" width="100%" height="100%" x="0" y="0" fill="none" stroke="none"/>































<g class="currentLayer" style=""><title>Layer 1</title><g id="katman_2">
	
		<linearGradient id="SVGID_1_" x1="0.003032446838915348" y1="0.49999091029167175" x2="1.0030415058135986" y2="0.49999091029167175">
		<stop offset="1" style="stop-color:#FFFFFF"/>
		<stop offset="1" style="stop-color:#010101"/>
	</linearGradient>
	
		<circle fill="url(#SVGID_1_)" stroke="#FFFFFF" stroke-width="0.6586" stroke-miterlimit="3.8636" cx="27.92300033569336" cy="28" r="27.552000045776367" id="svg_1"/>
</g><path fill="#066232" d="M22.027,27.484c-0.015,0.17-0.022,0.343-0.022,0.517c0,3.269,2.65,5.917,5.918,5.917  c3.269,0,5.919-2.648,5.919-5.917c0-0.174-0.008-0.347-0.021-0.517h5.205c0.008,0.172,0.012,0.344,0.012,0.517  c0,5.076-3.402,9.357-8.049,10.686c-0.451-1.258-1.653-2.157-3.065-2.157s-2.614,0.899-3.064,2.156  C20.212,37.355,16.81,33.076,16.81,28c0-0.173,0.003-0.345,0.012-0.517H22.027L22.027,27.484z M27.923,15.514  c-6.896,0-12.486,5.591-12.486,12.487c0,5.775,3.919,10.633,9.243,12.06c0.14,1.667,1.539,2.979,3.243,2.979  s3.103-1.311,3.243-2.977c5.326-1.429,9.246-6.287,9.246-12.062c0-0.173-0.004-0.345-0.012-0.517h5.197  c0.004,0.172,0.008,0.344,0.008,0.517c0,9.765-7.918,17.682-17.683,17.682c-9.765,0-17.682-7.917-17.682-17.682  c0-9.766,7.917-17.682,17.682-17.682c8.132,0,14.983,5.489,17.046,12.964h-5.48C37.627,18.726,33.152,15.514,27.923,15.514z   M22.022,18.581h5.216v8.902h-5.216V18.581z M28.61,18.581h5.216v8.902H28.61V18.581z" id="svg_2"/><circle fill="none" stroke="#FFFFFF" stroke-width="0.6586" stroke-miterlimit="3.8636" cx="27.92300033569336" cy="28.000999450683594" r="27.552000045776367" id="svg_3"/><path fill="#808184" d="M22.536,49.484c0.271-0.979,0.466-1.606,0.479-1.658c0.017-0.064,0.017-0.141-0.035-0.154  c-0.045-0.012-0.107,0.014-0.175,0.035l-1.461,0.496c-0.031,0.013-0.058,0.033-0.063,0.052c-0.007,0.026,0.011,0.065,0.03,0.069  c0.026,0.008,0.047,0.006,0.084-0.004c0.181-0.033,0.692-0.146,0.813-0.113c0.103,0.027,0.097,0.104,0.063,0.23  c-0.095,0.354-0.169,0.629-0.261,0.975l-0.301,1.121c-0.172,0.644-0.319,1.193-0.414,1.473c-0.067,0.193-0.138,0.279-0.359,0.261  c-0.129-0.008-0.449-0.071-0.525-0.093c-0.026-0.008-0.059,0.013-0.065,0.038c-0.009,0.03,0.026,0.055,0.096,0.073  c0.411,0.109,0.956,0.234,0.988,0.244c0.032,0.008,0.439,0.139,0.92,0.268c0.077,0.021,0.113,0.016,0.121-0.016  c0.007-0.025-0.018-0.062-0.043-0.066c-0.058-0.016-0.322-0.107-0.413-0.152c-0.193-0.1-0.193-0.203-0.166-0.408  c0.043-0.291,0.185-0.845,0.363-1.482L22.536,49.484z" id="svg_4"/><path fill="#808184" d="M26.441,48.23c-0.914-0.063-1.627,0.52-1.691,1.434C24.71,50.22,25.058,50.97,26,51.035  c0.265,0.02,0.609-0.057,0.815-0.248c0.021-0.021,0.029-0.031,0.03-0.053c0.001-0.02-0.01-0.047-0.03-0.049  c-0.02-0.001-0.047,0.012-0.089,0.034c-0.09,0.047-0.227,0.104-0.538,0.082c-0.179-0.013-0.979-0.288-0.902-1.388  c0.037-0.524,0.382-0.991,0.979-0.949c0.583,0.04,1.051,0.665,0.97,1.824c-0.109,1.557-1.206,2.584-2.017,2.961  c-0.042,0.019-0.07,0.048-0.073,0.089c-0.002,0.039,0.022,0.067,0.048,0.069c0.027,0.002,0.067-0.002,0.108-0.021  c0.836-0.347,2.4-1.39,2.53-3.25C27.902,49.132,27.375,48.296,26.441,48.23z" id="svg_5"/><path fill="#808184" d="M29.719,48.302c-0.429,0.056-0.595,0.008-0.634,0.013c-0.041,0.006-0.063,0.033-0.055,0.102  c0.008,0.064,0.004,0.85,0.029,1.06c0.01,0.071,0.02,0.104,0.053,0.101s0.049-0.039,0.049-0.1c-0.004-0.188,0.063-0.408,0.188-0.539  c0.144-0.15,0.403-0.215,0.595-0.238l1.621-0.199c-0.783,1.849-1.279,3.695-1.43,4.591c-0.014,0.062-0.021,0.164-0.012,0.229  c0.006,0.045,0.027,0.063,0.066,0.059c0.133-0.016,0.613-0.35,0.598-0.48c-0.01-0.072-0.029-0.117-0.029-0.229  c-0.006-0.87,0.764-3.587,1.201-4.443c0.025-0.057,0.027-0.104,0.023-0.13c-0.006-0.039-0.041-0.063-0.127-0.052L29.719,48.302z" id="svg_6"/><path fill="#808184" d="M36.016,50.617c0.244,0.75-0.143,1.281-0.779,1.488c-0.664,0.217-1.021-0.072-1.225-0.544  c-0.029-0.067-0.043-0.086-0.074-0.075c-0.029,0.012-0.033,0.047-0.018,0.111c0.025,0.146,0.115,0.508,0.211,0.803  c0.025,0.077,0.051,0.117,0.158,0.146c0.158,0.031,0.561-0.016,0.82-0.1c1.123-0.365,1.646-1.353,1.359-2.236  c-0.236-0.732-1.006-0.908-1.434-0.874l-0.012-0.031c0.166-0.151,0.684-0.78,0.477-1.412c-0.104-0.313-0.529-0.875-1.557-0.541  c-0.475,0.154-0.789,0.39-0.955,0.548c-0.061,0.075-0.057,0.104-0.039,0.159c0.047,0.146,0.16,0.423,0.25,0.617  c0.023,0.056,0.047,0.062,0.066,0.056c0.02-0.007,0.039-0.027,0.02-0.091c-0.158-0.485,0.092-0.854,0.553-1.004  c0.746-0.241,1.102,0.292,1.188,0.558c0.24,0.739-0.355,1.269-0.646,1.426c-0.078,0.039-0.135,0.078-0.121,0.123  c0.014,0.043,0.063,0.043,0.191,0.027C34.887,49.721,35.74,49.771,36.016,50.617z" id="svg_7"/><circle fill="#808184" cx="39.21699905395508" cy="48.11800003051758" r="0.43799999356269836" id="svg_8"/><circle fill="none" stroke="#808184" stroke-width="1.5186" stroke-miterlimit="3.8637" cx="39.21699905395508" cy="48.11800003051758" r="0.43799999356269836" id="svg_9"/><circle fill="#808184" cx="17.882999420166016" cy="48.11800003051758" r="0.43799999356269836" id="svg_10"/><circle fill="none" stroke="#808184" stroke-width="1.5186" stroke-miterlimit="3.8637" cx="17.882999420166016" cy="48.11800003051758" r="0.43799999356269836" id="svg_11"/><circle fill="none" stroke="#FFFFFF" stroke-width="0.6586" stroke-miterlimit="3.8636" cx="27.92300033569336" cy="28" r="27.552000045776367" id="svg_12"/><path fill-rule="evenodd" clip-rule="evenodd" fill="#066232" d="M21.949,27.319c-0.015,0.173-0.023,0.348-0.023,0.523  c0,3.3,2.662,5.974,5.945,5.974c3.285,0,5.945-2.674,5.945-5.974c0-0.175-0.008-0.35-0.021-0.523h5.229  c0.008,0.175,0.012,0.348,0.012,0.523c0,5.122-3.418,9.442-8.086,10.784c-0.451-1.269-1.661-2.176-3.079-2.176  c-1.418,0-2.625,0.907-3.078,2.176c-4.668-1.343-8.083-5.662-8.083-10.784c0-0.175,0.004-0.348,0.012-0.523H21.949z M27.872,15.242  c-6.926,0-12.542,5.641-12.542,12.601c0,5.828,3.938,10.73,9.284,12.173c0.141,1.682,1.545,3.001,3.257,3.001  s3.116-1.319,3.258-3.001c5.348-1.443,9.285-6.345,9.285-12.173c0-0.175-0.004-0.348-0.012-0.523h5.223  c0.004,0.175,0.006,0.348,0.006,0.523c0,9.856-7.951,17.844-17.759,17.844c-9.808,0-17.759-7.988-17.759-17.844  c0-9.855,7.952-17.844,17.759-17.844c8.169,0,15.048,5.54,17.121,13.084h-5.506C37.617,18.482,33.121,15.242,27.872,15.242z   M21.945,18.337h5.239v8.982h-5.239V18.337z M28.562,18.337h5.239v8.982h-5.239V18.337z" id="svg_13"/><path fill-rule="evenodd" clip-rule="evenodd" fill="#231F20" d="M13.777,46.058c-0.455,0.507-0.937,0.874-1.611,0.895  c-0.325,0.014-0.807-0.071-1.466-0.666c-0.435-0.396-0.696-0.876-0.737-1.182c-0.031-0.227,0.073-0.501,0.247-0.695  c0.063-0.069,0.09-0.11,0.055-0.142c-0.03-0.027-0.067-0.005-0.138,0.065c-0.073,0.069-0.318,0.344-0.475,0.499  c-0.171,0.17-0.239,0.216-0.275,0.257c-0.027,0.029-0.035,0.058,0.015,0.112c0.149,0.151,0.281,0.327,0.438,0.532  c0.203,0.266,0.468,0.531,0.666,0.71c0.764,0.691,1.424,0.865,1.99,0.834c0.838-0.043,1.475-0.522,1.773-0.858  c0.424-0.473,0.815-1.147,0.721-2.015c-0.065-0.608-0.32-1.166-0.864-1.729l0.511,0.02c0.077,0.004,0.114,0.002,0.127-0.01  c0.019-0.021,0.007-0.048-0.034-0.113c-0.217-0.35-0.161-0.542-0.032-0.686c0.161-0.181,0.448-0.111,0.639,0.026  c0.06,0.043,0.109,0.08,0.149,0.034c0.021-0.022,0.006-0.064-0.029-0.097c-0.094-0.086-0.28-0.198-0.467-0.26  c-0.231-0.085-0.544-0.103-0.718,0.09c-0.183,0.204-0.102,0.494,0.178,0.801c-0.065,0.004-0.363,0.015-0.509,0.007  c-0.03-0.034-0.065-0.066-0.105-0.102c-0.317-0.287-0.725-0.593-0.994-0.693c-0.125-0.04-0.144-0.04-0.258,0.028  c-0.202,0.124-0.65,0.505-0.68,0.539c-0.036,0.038-0.058,0.082-0.033,0.106c0.03,0.024,0.057,0.016,0.116-0.031  c0.096-0.075,0.356-0.236,0.558-0.253c0.381-0.024,0.714,0.196,1.086,0.534C14.682,43.575,14.63,45.104,13.777,46.058z" id="svg_14"/><path fill-rule="evenodd" clip-rule="evenodd" fill="#231F20" d="M9.599,40.994c0.835-0.504,1.104-0.965,1.205-1.408  c0.139-0.64-0.184-1.233-0.301-1.43c-0.203-0.339-0.518-0.734-1.131-0.926c-0.681-0.214-1.409,0.13-2.026,0.503l-0.612,0.369  c-0.891,0.537-1.052,0.636-1.241,0.735c-0.207,0.108-0.326,0.117-0.453-0.018c-0.053-0.061-0.079-0.092-0.104-0.132  c-0.014-0.024-0.038-0.042-0.061-0.026c-0.035,0.021-0.029,0.058,0.009,0.12c0.103,0.171,0.282,0.432,0.306,0.473  c0.021,0.033,0.193,0.359,0.348,0.618c0.037,0.064,0.066,0.086,0.101,0.064c0.023-0.013,0.021-0.044,0.007-0.066  c-0.031-0.051-0.084-0.154-0.101-0.204c-0.073-0.215-0.009-0.316,0.178-0.446c0.176-0.121,0.337-0.218,1.229-0.755l0.713-0.432  c0.59-0.357,1.117-0.581,1.601-0.515c0.37,0.059,0.742,0.304,0.951,0.653c0.195,0.328,0.3,0.618,0.205,1.058  c-0.087,0.39-0.331,0.789-1.155,1.283l-0.8,0.484c-0.892,0.538-1.052,0.635-1.242,0.733c-0.207,0.11-0.337,0.127-0.452-0.016  c-0.053-0.062-0.08-0.093-0.103-0.133c-0.014-0.023-0.039-0.04-0.062-0.025c-0.035,0.021-0.029,0.057,0.009,0.119  c0.103,0.172,0.327,0.508,0.357,0.559c0.029,0.052,0.223,0.412,0.378,0.67c0.038,0.065,0.066,0.087,0.101,0.065  c0.023-0.014,0.021-0.043,0.007-0.067c-0.031-0.051-0.085-0.152-0.1-0.206c-0.074-0.214-0.009-0.313,0.177-0.441  c0.177-0.122,0.337-0.221,1.229-0.758L9.599,40.994z" id="svg_15"/><path fill-rule="evenodd" clip-rule="evenodd" fill="#231F20" d="M6.634,34.373c0.622-0.155,1.133-0.283,1.414-0.319  c0.193-0.021,0.344-0.023,0.403,0.101c0.027,0.055,0.059,0.129,0.074,0.189c0.01,0.037,0.033,0.046,0.052,0.04  c0.039-0.01,0.044-0.043,0.025-0.117c-0.048-0.194-0.161-0.566-0.173-0.62c-0.013-0.05-0.088-0.432-0.167-0.752  c-0.018-0.069-0.045-0.098-0.077-0.09c-0.02,0.004-0.036,0.023-0.027,0.063c0.015,0.057,0.028,0.163,0.038,0.259  c0.022,0.2-0.11,0.275-0.292,0.342c-0.264,0.102-0.776,0.229-1.396,0.385l-0.635,0.16l-0.007-0.034  c0.304-0.407,1.444-2.157,1.611-2.51c0.15-0.335,0.253-0.533,0.199-0.886c-0.022-0.146-0.054-0.27-0.099-0.452L7.493,29.8  c-0.027-0.11-0.054-0.138-0.087-0.129c-0.026,0.007-0.03,0.048-0.018,0.095c0.011,0.045,0.045,0.236,0.015,0.425  c-0.051,0.343-0.128,0.479-0.497,1.151c-0.179,0.329-1.236,2.031-1.381,2.247c-0.197-0.099-1.577-0.951-1.773-1.077  c-0.35-0.222-0.547-0.324-0.73-0.562c-0.09-0.117-0.158-0.245-0.182-0.343c-0.012-0.052-0.028-0.062-0.061-0.053  c-0.033,0.008-0.04,0.038-0.021,0.108c0.041,0.162,0.167,0.585,0.175,0.619c0.039,0.157,0.069,0.362,0.101,0.492  c0.011,0.047,0.032,0.076,0.065,0.068c0.025-0.007,0.032-0.036,0.037-0.073c0.007-0.055,0.038-0.1,0.115-0.117  c0.11-0.026,0.32,0.1,0.553,0.234c0.311,0.17,1.793,1.05,1.944,1.129l0.007,0.026L5.367,34.14c-1.01,0.252-1.192,0.298-1.401,0.335  c-0.23,0.045-0.353,0.02-0.429-0.146c-0.033-0.075-0.049-0.113-0.06-0.159c-0.007-0.024-0.026-0.049-0.052-0.042  c-0.04,0.01-0.044,0.045-0.026,0.117c0.048,0.194,0.162,0.566,0.177,0.625c0.01,0.039,0.084,0.429,0.157,0.722  c0.018,0.071,0.039,0.1,0.078,0.089c0.026-0.005,0.033-0.034,0.026-0.06c-0.015-0.061-0.035-0.173-0.035-0.227  c-0.008-0.227,0.083-0.304,0.299-0.372c0.204-0.066,0.385-0.111,1.395-0.362L6.634,34.373z" id="svg_16"/><path fill-rule="evenodd" clip-rule="evenodd" fill="#231F20" d="M5.492,28.423c0.972,0.067,1.455-0.154,1.79-0.459  C7.76,27.52,7.834,26.848,7.85,26.62c0.028-0.395-0.004-0.901-0.396-1.412c-0.436-0.568-1.228-0.705-1.947-0.755l-0.712-0.05  c-1.038-0.074-1.224-0.087-1.436-0.115c-0.232-0.029-0.334-0.09-0.362-0.273c-0.008-0.081-0.011-0.122-0.009-0.168  c0.002-0.027-0.009-0.056-0.036-0.058c-0.041-0.002-0.057,0.031-0.061,0.104c-0.014,0.201-0.016,0.517-0.02,0.563  c-0.002,0.041-0.047,0.408-0.069,0.708c-0.005,0.073,0.006,0.106,0.045,0.11c0.027,0.002,0.042-0.025,0.044-0.05  c0.004-0.06,0.019-0.174,0.037-0.226c0.061-0.218,0.172-0.264,0.399-0.261c0.214,0.001,0.4,0.014,1.438,0.087l0.833,0.059  c0.685,0.048,1.245,0.168,1.603,0.502c0.269,0.262,0.435,0.676,0.406,1.084c-0.026,0.38-0.107,0.677-0.436,0.984  c-0.292,0.268-0.72,0.454-1.678,0.386l-0.932-0.066c-1.038-0.074-1.225-0.086-1.437-0.114c-0.232-0.03-0.348-0.093-0.362-0.275  c-0.008-0.082-0.012-0.122-0.008-0.168c0.001-0.027-0.01-0.053-0.037-0.056c-0.04-0.002-0.056,0.03-0.061,0.103  c-0.014,0.201-0.022,0.604-0.026,0.664c-0.004,0.061-0.052,0.468-0.073,0.769c-0.005,0.072,0.006,0.106,0.046,0.109  c0.026,0.002,0.042-0.024,0.043-0.051c0.004-0.059,0.019-0.173,0.035-0.226c0.062-0.218,0.172-0.263,0.399-0.261  c0.214,0.002,0.399,0.015,1.439,0.089L5.492,28.423z" id="svg_17"/><path fill-rule="evenodd" clip-rule="evenodd" fill="#231F20" d="M4.36,19.771c-0.037-0.015-0.055-0.042-0.055-0.079  c0.005-0.069,0.05-0.246,0.123-0.434c0.256-0.668,0.88-0.902,1.659-0.602c0.472,0.182,0.747,0.476,0.813,0.75  c0.045,0.183-0.003,0.366-0.061,0.516c-0.105,0.275-0.258,0.547-0.35,0.617c-0.03,0.025-0.061,0.029-0.092,0.017L4.36,19.771z   M6.76,21.271c0.599,0.229,1.09,0.419,1.34,0.551c0.171,0.096,0.295,0.18,0.273,0.314c-0.009,0.061-0.025,0.141-0.047,0.197  c-0.014,0.037,0,0.057,0.018,0.064c0.038,0.013,0.062-0.012,0.089-0.082c0.07-0.187,0.203-0.589,0.206-0.595  c0.012-0.031,0.181-0.418,0.312-0.762c0.027-0.068,0.021-0.107-0.011-0.118c-0.019-0.009-0.042-0.004-0.057,0.034  c-0.021,0.056-0.086,0.189-0.133,0.272c-0.097,0.178-0.248,0.163-0.436,0.111C8.041,21.191,7.549,21,6.951,20.771l-0.149-0.059  c-0.031-0.011-0.045-0.031-0.033-0.063l0.306-0.765c0.014-0.037,0.034-0.051,0.069-0.067c0.209-0.063,0.739-0.195,1.182-0.326  C8.929,19.315,9.317,19.212,9.563,19c0.15-0.129,0.241-0.273,0.375-0.624l0.169-0.445c0.043-0.112,0.045-0.154,0.008-0.169  c-0.02-0.007-0.047,0.011-0.06,0.042c-0.014,0.038-0.047,0.125-0.111,0.237c-0.085,0.147-0.257,0.39-0.74,0.59  c-0.524,0.214-1.242,0.427-2.091,0.686c-0.302-0.762-0.688-1.133-1.149-1.311c-0.43-0.167-0.84-0.008-1.012,0.104  c-0.364,0.241-0.562,0.646-0.712,1.04c-0.073,0.194-0.237,0.677-0.263,0.745c-0.012,0.031-0.181,0.418-0.289,0.7  c-0.026,0.069-0.025,0.105,0.012,0.119c0.025,0.01,0.047-0.011,0.056-0.035c0.021-0.058,0.068-0.161,0.1-0.206  c0.123-0.189,0.241-0.202,0.458-0.132c0.204,0.064,0.378,0.132,1.35,0.506L6.76,21.271z" id="svg_18"/><path fill-rule="evenodd" clip-rule="evenodd" fill="#231F20" d="M8.84,15.113c-1.135-0.924-1.181-2.039-0.48-2.908  c0.663-0.823,1.945-1.041,3.189-0.027c1.508,1.227,0.997,2.416,0.619,2.883C11.414,15.999,10.047,16.096,8.84,15.113z M8.586,15.726  c0.933,0.758,2.516,1.064,3.666-0.363c1.012-1.256,0.716-2.859-0.446-3.803c-1.208-0.983-2.648-0.707-3.593,0.464  C7.055,13.463,7.747,15.043,8.586,15.726z" id="svg_19"/><path fill-rule="evenodd" clip-rule="evenodd" fill="#231F20" d="M13.619,8.161c-0.225-0.164-0.406-0.295-0.453-0.367  c-0.025-0.041-0.043-0.092,0-0.161c0.036-0.055,0.133-0.127,0.194-0.167c0.04-0.025,0.048-0.047,0.031-0.076  c-0.019-0.027-0.077-0.006-0.177,0.06c-0.212,0.138-0.453,0.319-0.509,0.356c-0.066,0.044-0.397,0.234-0.666,0.41  c-0.089,0.059-0.141,0.1-0.12,0.134c0.015,0.023,0.037,0.032,0.07,0.01c0.034-0.022,0.129-0.084,0.228-0.116  c0.232-0.072,0.356-0.065,0.682,0.17l3.597,2.551c0.281,0.2,0.359,0.261,0.426,0.217c0.056-0.037,0.021-0.141-0.041-0.581  c-0.049-0.359-0.189-1.13-0.379-2.173c-0.161-0.878-0.318-1.734-0.358-1.932c-0.095-0.481-0.074-0.631-0.034-0.729  c0.063-0.137,0.186-0.217,0.225-0.243c0.044-0.029,0.06-0.056,0.042-0.083c-0.018-0.028-0.059-0.019-0.121,0.022  c-0.162,0.106-0.391,0.28-0.425,0.302c-0.067,0.044-0.336,0.195-0.559,0.341c-0.09,0.057-0.117,0.091-0.095,0.125  c0.019,0.028,0.05,0.016,0.084-0.006c0.061-0.04,0.145-0.095,0.227-0.116c0.075-0.009,0.127,0.037,0.156,0.082  c0.033,0.051,0.061,0.144,0.088,0.246c0.139,0.485,0.656,2.936,0.819,3.9L13.619,8.161z" id="svg_20"/><path fill-rule="evenodd" clip-rule="evenodd" fill="#231F20" d="M20.44,6.833c-0.02,0.006-0.037-0.002-0.034-0.039l0.035-1.903  c0.002-0.105,0.035-0.115,0.096-0.029l1.132,1.544c0.014,0.024,0.02,0.044-0.011,0.053L20.44,6.833z M19.978,8.524  c-0.018,0.356-0.071,0.64-0.352,0.767c-0.049,0.022-0.138,0.057-0.182,0.07c-0.032,0.01-0.054,0.031-0.045,0.056  c0.012,0.039,0.054,0.04,0.136,0.015c0.3-0.092,0.645-0.219,0.715-0.241c0.071-0.021,0.351-0.086,0.503-0.133  c0.058-0.018,0.093-0.042,0.081-0.081c-0.008-0.025-0.03-0.033-0.076-0.019l-0.063,0.02c-0.108,0.033-0.26,0.017-0.299-0.111  c-0.035-0.115-0.05-0.278-0.041-0.457l0.037-1.252c0.003-0.036,0.016-0.06,0.048-0.07l1.371-0.422c0.033-0.01,0.048,0,0.069,0.021  l1.073,1.394c0.071,0.091,0.049,0.161,0.015,0.186c-0.023,0.014-0.038,0.033-0.03,0.059c0.011,0.038,0.082,0.016,0.205-0.014  c0.444-0.123,0.909-0.266,1.005-0.295c0.07-0.021,0.124-0.053,0.112-0.091c-0.01-0.032-0.038-0.03-0.076-0.019  c-0.063,0.02-0.161,0.043-0.266,0.04c-0.146,0.003-0.362-0.043-0.766-0.543c-0.686-0.854-2.493-3.194-2.662-3.408  c-0.137-0.175-0.171-0.199-0.211-0.188c-0.037,0.012-0.052,0.058-0.063,0.292L19.978,8.524z" id="svg_21"/><path fill-rule="evenodd" clip-rule="evenodd" fill="#231F20" d="M28.521,5.665c-0.119,0.972,0.076,1.469,0.363,1.821  c0.414,0.503,1.081,0.613,1.306,0.64c0.391,0.048,0.895,0.043,1.424-0.324c0.588-0.407,0.764-1.196,0.852-1.914l0.088-0.711  c0.127-1.038,0.148-1.224,0.189-1.435c0.041-0.23,0.107-0.331,0.291-0.349c0.08-0.004,0.121-0.006,0.168,0  c0.025,0.003,0.053-0.007,0.057-0.034c0.006-0.04-0.025-0.057-0.098-0.066C32.959,3.27,32.646,3.251,32.6,3.246  c-0.039-0.005-0.4-0.07-0.699-0.107c-0.07-0.009-0.107,0-0.111,0.04c-0.002,0.027,0.021,0.043,0.047,0.046  c0.061,0.007,0.172,0.028,0.223,0.048c0.215,0.073,0.254,0.187,0.24,0.415c-0.014,0.213-0.035,0.4-0.164,1.438l-0.102,0.832  c-0.084,0.685-0.232,1.24-0.582,1.582c-0.273,0.256-0.693,0.4-1.098,0.351c-0.377-0.046-0.67-0.143-0.955-0.489  c-0.253-0.307-0.414-0.747-0.297-1.704l0.114-0.932c0.126-1.037,0.148-1.224,0.188-1.435c0.043-0.231,0.109-0.345,0.293-0.349  c0.08-0.003,0.121-0.005,0.166,0c0.027,0.003,0.055-0.006,0.059-0.033c0.004-0.039-0.027-0.057-0.1-0.065  c-0.197-0.025-0.599-0.053-0.659-0.061c-0.059-0.008-0.461-0.078-0.758-0.113c-0.073-0.01-0.107,0-0.111,0.04  c-0.004,0.026,0.02,0.043,0.047,0.046c0.059,0.007,0.172,0.028,0.223,0.047c0.213,0.074,0.252,0.188,0.237,0.415  c-0.013,0.215-0.035,0.401-0.161,1.438L28.521,5.665z" id="svg_22"/><path fill-rule="evenodd" clip-rule="evenodd" fill="#231F20" d="M36.736,5.378c0.086,0.311,0.395,1.401,0.723,2.494  c0.301,0.997,0.732,2.305,0.77,2.398c0.164,0.474,0.203,0.577,0.252,0.601c0.043,0.02,0.07-0.004,0.262-0.401l1.727-3.524  c0.174-0.361,0.264-0.481,0.482-0.426c0.08,0.016,0.121,0.038,0.152,0.052c0.041,0.021,0.072,0.014,0.086-0.009  c0.018-0.037-0.021-0.063-0.088-0.095c-0.246-0.12-0.453-0.2-0.52-0.232c-0.066-0.033-0.346-0.193-0.615-0.325  c-0.072-0.035-0.123-0.052-0.139-0.016c-0.012,0.024-0.016,0.045,0.027,0.066c0.047,0.023,0.182,0.096,0.277,0.173  c0.162,0.139,0.139,0.292-0.043,0.687l-1.42,3.093c-0.096-0.293-0.391-1.348-0.674-2.277c-0.439-1.445-0.859-2.852-0.902-2.999  c-0.029-0.09-0.068-0.272-0.117-0.296c-0.047-0.024-0.098,0.035-0.211,0.269l-1.682,3.448c-0.266,0.548-0.381,0.709-0.553,0.677  c-0.104-0.015-0.215-0.062-0.264-0.085c-0.029-0.014-0.053-0.01-0.064,0.013c-0.02,0.042,0.012,0.066,0.072,0.096  c0.27,0.132,0.531,0.238,0.586,0.264c0.055,0.027,0.285,0.163,0.627,0.33c0.072,0.036,0.113,0.041,0.131,0.005  c0.012-0.024,0-0.045-0.029-0.06c-0.055-0.027-0.184-0.098-0.281-0.183c-0.141-0.127-0.123-0.313,0.105-0.813L36.736,5.378z" id="svg_23"/><path fill-rule="evenodd" clip-rule="evenodd" fill="#231F20" d="M43.301,10.795c0.697-0.777,0.822-0.916,0.975-1.066  c0.166-0.166,0.281-0.214,0.438-0.118c0.068,0.044,0.104,0.066,0.137,0.097c0.02,0.019,0.049,0.026,0.066,0.006  c0.027-0.03,0.012-0.062-0.043-0.111c-0.148-0.135-0.475-0.403-0.5-0.425c-0.023-0.022-0.324-0.319-0.486-0.468  c-0.055-0.049-0.088-0.063-0.115-0.031c-0.018,0.019-0.008,0.047,0.014,0.065c0.033,0.032,0.094,0.095,0.135,0.16  c0.086,0.123,0.061,0.253-0.082,0.431c-0.133,0.168-0.256,0.308-0.953,1.084L42.1,11.295c-0.43,0.478-0.781,0.872-0.994,1.059  c-0.148,0.127-0.271,0.214-0.389,0.144c-0.055-0.031-0.123-0.074-0.166-0.114c-0.029-0.027-0.053-0.021-0.068-0.006  c-0.025,0.03-0.01,0.062,0.045,0.111c0.148,0.135,0.475,0.402,0.5,0.426c0.023,0.021,0.322,0.319,0.596,0.566  c0.055,0.048,0.092,0.056,0.115,0.032c0.012-0.015,0.016-0.04-0.014-0.065c-0.045-0.041-0.145-0.149-0.205-0.222  c-0.131-0.154-0.063-0.291,0.051-0.449c0.164-0.231,0.518-0.625,0.945-1.103L43.301,10.795z" id="svg_24"/><path fill-rule="evenodd" clip-rule="evenodd" fill="#231F20" d="M46.816,12.884c0.152-0.234,0.271-0.422,0.342-0.473  c0.039-0.027,0.09-0.048,0.16-0.008c0.057,0.033,0.133,0.127,0.176,0.187c0.027,0.038,0.049,0.046,0.076,0.026  c0.027-0.02,0.002-0.076-0.066-0.174c-0.15-0.206-0.344-0.438-0.383-0.492c-0.047-0.065-0.254-0.386-0.441-0.646  c-0.063-0.087-0.107-0.138-0.141-0.113c-0.021,0.016-0.029,0.039-0.006,0.071s0.09,0.125,0.127,0.221  c0.084,0.23,0.082,0.355-0.133,0.695l-2.348,3.743c-0.184,0.292-0.24,0.374-0.193,0.439c0.039,0.054,0.141,0.014,0.576-0.072  c0.354-0.067,1.113-0.25,2.139-0.494c0.865-0.208,1.709-0.41,1.902-0.459c0.473-0.122,0.623-0.107,0.723-0.073  c0.141,0.056,0.225,0.175,0.254,0.213c0.031,0.043,0.059,0.058,0.084,0.038c0.027-0.02,0.014-0.06-0.027-0.12  c-0.115-0.158-0.299-0.379-0.324-0.411c-0.047-0.065-0.211-0.326-0.367-0.543c-0.063-0.086-0.098-0.112-0.131-0.087  c-0.025,0.02-0.012,0.051,0.012,0.083c0.043,0.06,0.102,0.141,0.127,0.222c0.014,0.074-0.029,0.129-0.072,0.161  c-0.047,0.036-0.141,0.069-0.24,0.102c-0.475,0.164-2.885,0.812-3.834,1.026L46.816,12.884z" id="svg_25"/><path fill-rule="evenodd" clip-rule="evenodd" fill="#231F20" d="M48.018,19.394c-0.598,0.231-1.09,0.421-1.361,0.491  c-0.191,0.045-0.34,0.066-0.412-0.049c-0.035-0.052-0.076-0.121-0.098-0.178c-0.014-0.037-0.037-0.042-0.057-0.035  c-0.037,0.014-0.037,0.051-0.012,0.119c0.035,0.094,0.104,0.232,0.152,0.358c0.057,0.128,0.096,0.235,0.102,0.248  c0.035,0.095,0.088,0.246,0.168,0.496c0.086,0.246,0.205,0.595,0.385,1.064c0.094,0.244,0.111,0.294,0.291,0.276  c0.143-0.019,0.586-0.133,0.635-0.152c0.043-0.017,0.094-0.036,0.08-0.074c-0.012-0.031-0.043-0.034-0.115-0.02  c-0.271,0.055-0.426,0.027-0.557-0.109s-0.236-0.411-0.299-0.573c-0.234-0.614-0.189-0.739,0.234-0.924  c0.129-0.057,0.854-0.329,1.064-0.41l0.547-0.212c0.027-0.01,0.049-0.004,0.063,0.027c0.039,0.105,0.264,0.73,0.309,0.906  c0.07,0.254-0.016,0.35-0.092,0.41c-0.072,0.055-0.135,0.08-0.195,0.104c-0.033,0.013-0.053,0.036-0.041,0.066  c0.018,0.043,0.086,0.017,0.135-0.002c0.045-0.017,0.279-0.094,0.408-0.13c0.213-0.059,0.332-0.068,0.369-0.083  c0.037-0.014,0.045-0.031,0.037-0.05c-0.01-0.025-0.051-0.039-0.115-0.063c-0.086-0.032-0.131-0.114-0.201-0.26  c-0.066-0.139-0.361-0.908-0.393-0.99c-0.012-0.032,0.006-0.045,0.049-0.063l1.719-0.662c0.043-0.018,0.066-0.012,0.076,0.014  c0.027,0.068,0.281,0.753,0.309,0.864c0.092,0.352,0.041,0.445-0.041,0.526c-0.064,0.06-0.168,0.107-0.211,0.125  c-0.049,0.019-0.076,0.043-0.063,0.081c0.01,0.024,0.053,0.021,0.086,0.016c0.08-0.015,0.359-0.108,0.424-0.126  c0.18-0.048,0.268-0.045,0.313-0.062c0.029-0.012,0.053-0.029,0.045-0.046c-0.012-0.032-0.045-0.047-0.064-0.076  c-0.031-0.046-0.082-0.141-0.135-0.258c-0.061-0.141-0.537-1.386-0.553-1.43l-0.084-0.261c-0.049-0.14-0.113-0.309-0.168-0.453  c-0.025-0.07-0.051-0.096-0.088-0.081c-0.025,0.009-0.027,0.04-0.018,0.064c0.021,0.056,0.055,0.165,0.063,0.221  c0.035,0.222-0.045,0.311-0.254,0.405c-0.193,0.089-0.367,0.156-1.34,0.532L48.018,19.394z" id="svg_26"/><path fill-rule="evenodd" clip-rule="evenodd" fill="#231F20" d="M52.314,24.799c0.041-0.001,0.068,0.016,0.084,0.048  c0.025,0.063,0.063,0.242,0.08,0.443c0.061,0.713-0.398,1.198-1.23,1.271c-0.504,0.044-0.877-0.098-1.057-0.317  c-0.121-0.144-0.156-0.329-0.172-0.489c-0.025-0.294-0.004-0.605,0.047-0.712c0.016-0.034,0.043-0.049,0.074-0.051L52.314,24.799z   M49.504,24.508c-0.639,0.056-1.162,0.103-1.445,0.093c-0.195-0.009-0.344-0.029-0.383-0.161c-0.018-0.059-0.039-0.137-0.043-0.197  c-0.004-0.04-0.025-0.053-0.045-0.051c-0.039,0.004-0.051,0.038-0.043,0.112c0.018,0.199,0.072,0.619,0.074,0.625  c0.002,0.034,0.02,0.456,0.051,0.824c0.006,0.074,0.029,0.105,0.063,0.101c0.02-0.001,0.039-0.017,0.037-0.057  c-0.006-0.06-0.006-0.208,0-0.302c0.008-0.204,0.15-0.256,0.342-0.292c0.275-0.06,0.801-0.105,1.438-0.161l0.16-0.015  c0.033-0.002,0.055,0.009,0.059,0.042l0.057,0.823c0.004,0.04-0.006,0.062-0.031,0.091c-0.16,0.149-0.578,0.501-0.92,0.814  c-0.465,0.423-0.771,0.687-0.898,0.987c-0.078,0.181-0.096,0.352-0.064,0.724l0.041,0.476c0.012,0.119,0.027,0.158,0.068,0.155  c0.02-0.002,0.037-0.031,0.033-0.063c-0.002-0.039-0.01-0.133-0.002-0.262c0.012-0.17,0.061-0.463,0.408-0.857  c0.377-0.423,0.93-0.929,1.58-1.539c0.604,0.553,1.113,0.716,1.604,0.674c0.459-0.04,0.76-0.363,0.865-0.54  c0.221-0.377,0.223-0.828,0.186-1.248c-0.018-0.207-0.082-0.712-0.088-0.786c-0.004-0.034-0.021-0.456-0.047-0.755  c-0.006-0.074-0.023-0.107-0.063-0.103c-0.025,0.002-0.037,0.031-0.035,0.058c0.006,0.059,0.01,0.174,0,0.229  c-0.027,0.223-0.129,0.287-0.354,0.319c-0.211,0.033-0.396,0.049-1.434,0.141L49.504,24.508z" id="svg_27"/><path fill-rule="evenodd" clip-rule="evenodd" fill="#231F20" d="M47.521,30.824c-0.057,0.356-0.035,0.728,0.119,1.045  c0.25,0.509,0.734,0.693,1.004,0.735c0.527,0.084,0.965-0.037,1.701-0.719l0.174-0.162c0.594-0.557,0.859-0.692,1.234-0.633  c0.48,0.078,0.707,0.479,0.635,0.937c-0.096,0.61-0.4,0.744-0.479,0.771c-0.08,0.03-0.264,0.041-0.344,0.036  c-0.053-0.003-0.088-0.002-0.094,0.039c-0.004,0.03,0.039,0.052,0.145,0.068c0.447,0.071,0.662,0.134,0.693,0.14  c0.033,0.004,0.049-0.007,0.057-0.062c0.01-0.052,0.023-0.104,0.07-0.226c0.066-0.157,0.123-0.346,0.164-0.605  c0.131-0.841-0.266-1.445-0.971-1.559c-0.449-0.071-0.881,0.022-1.564,0.633l-0.293,0.258c-0.557,0.497-0.852,0.646-1.305,0.575  c-0.422-0.069-0.826-0.45-0.727-1.087c0.07-0.443,0.322-0.851,0.826-0.874c0.096-0.005,0.188,0.011,0.246,0.021  c0.053,0.008,0.074,0.005,0.08-0.037c0.006-0.032-0.025-0.05-0.098-0.068c-0.104-0.023-0.363-0.093-0.693-0.145  c-0.176-0.028-0.205-0.025-0.266,0.059C47.664,30.217,47.57,30.516,47.521,30.824z" id="svg_28"/><path fill-rule="evenodd" clip-rule="evenodd" fill="#231F20" d="M49.434,36.202c0.984,0.342,1.162,0.403,1.359,0.483  c0.217,0.091,0.305,0.178,0.277,0.359c-0.012,0.081-0.02,0.121-0.035,0.166c-0.008,0.025-0.004,0.054,0.021,0.063  c0.037,0.014,0.061-0.014,0.086-0.084c0.064-0.189,0.182-0.594,0.193-0.627c0.01-0.031,0.166-0.424,0.238-0.634  c0.023-0.068,0.021-0.104-0.016-0.117c-0.025-0.009-0.047,0.012-0.055,0.037c-0.016,0.043-0.051,0.123-0.094,0.188  c-0.078,0.129-0.209,0.152-0.428,0.092c-0.205-0.056-0.381-0.118-1.365-0.458l-1.109-0.385c-0.607-0.209-1.104-0.381-1.359-0.505  c-0.174-0.088-0.303-0.169-0.283-0.305c0.008-0.061,0.02-0.14,0.041-0.198c0.012-0.038-0.002-0.058-0.021-0.063  c-0.039-0.013-0.063,0.014-0.086,0.084c-0.064,0.189-0.182,0.597-0.193,0.628c-0.01,0.03-0.166,0.423-0.285,0.771  c-0.025,0.07-0.018,0.109,0.016,0.121c0.018,0.006,0.041,0,0.055-0.039c0.02-0.057,0.078-0.192,0.123-0.276  c0.09-0.182,0.242-0.171,0.432-0.126c0.275,0.059,0.773,0.231,1.379,0.441L49.434,36.202z" id="svg_29"/><path fill-rule="evenodd" clip-rule="evenodd" fill="#231F20" d="M48.457,41.739l-0.469,0.699c-0.359,0.532-0.574,0.582-0.754,0.491  l-0.064-0.035c-0.084-0.046-0.107-0.046-0.125-0.016c-0.014,0.021-0.004,0.054,0.047,0.088c0.063,0.039,0.438,0.309,0.605,0.418  c0.033,0.021,0.066,0.044,0.084,0.016c0.016-0.024,0.033-0.086,0.076-0.179c0.039-0.101,0.113-0.235,0.229-0.417l1.361-2.105  c0.043-0.066,0.193-0.271,0.314-0.427c0.109-0.145,0.203-0.164,0.227-0.201c0.016-0.023-0.043-0.094-0.07-0.127  c-0.037-0.039-0.445-0.467-0.5-0.503c-0.035-0.022-0.059-0.022-0.07-0.004c-0.014,0.022-0.014,0.046,0.021,0.093  c0.027,0.043,0.057,0.084,0.111,0.207c0.076,0.178,0.027,0.339-0.191,0.692l-0.527,0.838l-2.365-1.545  c-0.537-0.35-0.98-0.639-1.197-0.82c-0.146-0.128-0.252-0.236-0.201-0.361c0.02-0.059,0.053-0.134,0.086-0.185  c0.021-0.034,0.014-0.055-0.004-0.066c-0.033-0.022-0.064,0-0.104,0.061c-0.109,0.17-0.32,0.533-0.34,0.562  c-0.018,0.029-0.264,0.372-0.463,0.679c-0.039,0.063-0.041,0.102-0.012,0.118c0.016,0.012,0.041,0.012,0.061-0.021  c0.033-0.052,0.125-0.166,0.188-0.238c0.131-0.156,0.275-0.109,0.447-0.018c0.254,0.124,0.697,0.412,1.232,0.762L48.457,41.739z" id="svg_30"/><path fill-rule="evenodd" clip-rule="evenodd" fill="#231F20" d="M42.309,43.502c-0.072-0.076-0.264-0.283-0.439-0.502  c-0.123-0.153-0.178-0.303-0.1-0.413c0.035-0.049,0.084-0.114,0.129-0.155c0.027-0.029,0.023-0.051,0.012-0.066  c-0.027-0.029-0.063-0.017-0.115,0.031c-0.146,0.14-0.439,0.44-0.465,0.466c-0.025,0.021-0.346,0.296-0.613,0.548  c-0.055,0.048-0.064,0.086-0.041,0.111c0.012,0.015,0.037,0.019,0.066-0.008c0.043-0.042,0.16-0.132,0.236-0.186  c0.166-0.116,0.309-0.052,0.451,0.084c0.205,0.192,0.396,0.396,0.471,0.475l0.389,0.422c0.152,0.16,0.291,0.312,0.383,0.558  c0.107,0.293,0.494,2.085,0.514,2.433c0.016,0.232,0.018,0.342-0.025,0.493c-0.033,0.119-0.107,0.228-0.16,0.276  c-0.039,0.038-0.051,0.073-0.027,0.1c0.018,0.021,0.057,0.002,0.09-0.032c0.092-0.084,0.43-0.429,0.459-0.456  c0.039-0.038,0.209-0.167,0.336-0.286c0.049-0.046,0.07-0.083,0.051-0.103c-0.021-0.025-0.061-0.008-0.117,0.02  c-0.072,0.039-0.143,0.004-0.205-0.064c-0.061-0.065-0.119-0.167-0.15-0.329c-0.053-0.253-0.43-1.905-0.527-2.2  c0.219,0.062,2.125,0.64,2.334,0.711c0.107,0.035,0.188,0.072,0.242,0.132c0.035,0.037,0.039,0.09,0.018,0.146  c-0.025,0.061-0.051,0.094-0.031,0.114c0.018,0.018,0.041,0.024,0.094-0.026c0.191-0.177,0.363-0.365,0.396-0.399  c0.025-0.021,0.404-0.35,0.498-0.438c0.043-0.038,0.049-0.071,0.031-0.093c-0.023-0.022-0.057-0.01-0.08,0.012  c-0.045,0.043-0.164,0.098-0.283,0.119c-0.143,0.024-0.379,0.015-0.668-0.053c-0.408-0.093-2.063-0.561-2.17-0.606  c-0.195-0.083-0.344-0.145-0.59-0.411L42.309,43.502z" id="svg_31"/><polyline fill="#231F20" stroke="#ffffff" stroke-dashoffset="" fill-rule="evenodd" marker-start="" marker-mid="" marker-end="" id="svg_32" points="13.86046592089339,41.19999902414726 13.976744985503046,41.19999902414726 14.093024050112703,41.19999902414726 14.093024050112703,41.31627808875692 14.20930311472236,41.31627808875692 14.325582179332017,41.432557153366574 14.441861243941673,41.54883621797623 14.55814030855133,41.54883621797623 14.674419373160987,41.66511528258589 14.790698437770644,41.781394347195544 14.790698437770644,41.8976734118052 14.906977502380299,41.8976734118052 14.906977502380299,42.01395247641486 15.023256566989957,42.01395247641486 15.255814696209285,42.130231541024514 15.255814696209285,42.24651060563417 15.372093760818943,42.24651060563417 15.372093760818943,42.36278967024384 " style="color: rgb(0, 0, 0);"/><polyline fill="#231F20" stroke="#ffffff" stroke-dashoffset="" fill-rule="evenodd" marker-start="" marker-mid="" marker-end="" id="svg_33" points="14.325582179332017,41.781394347195544 14.325582179332017,41.8976734118052 14.441861243941673,41.8976734118052 14.55814030855133,42.01395247641486 14.674419373160987,42.130231541024514 14.674419373160987,42.24651060563417 14.674419373160987,42.36278967024384 " style="color: rgb(0, 0, 0);"/><polyline fill="#231F20" stroke="#ffffff" stroke-dashoffset="" fill-rule="evenodd" marker-start="" marker-mid="" marker-end="" id="svg_34" points="14.441861243941673,41.432557153366574 14.55814030855133,41.432557153366574 14.674419373160987,41.432557153366574 14.674419373160987,41.54883621797623 14.674419373160987,41.781394347195544 14.674419373160987,42.01395247641486 14.674419373160987,42.130231541024514 14.790698437770644,42.24651060563417 " style="color: rgb(0, 0, 0);"/><polyline fill="#231F20" stroke="#ffffff" stroke-dashoffset="" fill-rule="evenodd" marker-start="" marker-mid="" marker-end="" id="svg_35" points="14.790698437770644,42.4790687348535 14.790698437770644,42.4790687348535 " style="color: rgb(0, 0, 0);"/><polyline fill="#231F20" stroke="#ffffff" stroke-dashoffset="" fill-rule="evenodd" marker-start="" marker-mid="" marker-end="" id="svg_36" points="14.20930311472236,42.130231541024514 14.20930311472236,42.130231541024514 14.20930311472236,42.130231541024514 " style="color: rgb(0, 0, 0);"/><polyline fill="#231F20" stroke="#ffffff" stroke-dashoffset="" fill-rule="evenodd" marker-start="" marker-mid="" marker-end="" id="svg_37" points="15.023256566989957,42.71162686407281 14.906977502380299,42.595347799463156 14.790698437770644,42.595347799463156 14.55814030855133,42.4790687348535 14.325582179332017,42.36278967024384 " style="color: rgb(0, 0, 0);"/><polyline fill="#231F20" stroke="#ffffff" stroke-dashoffset="" fill-rule="evenodd" marker-start="" marker-mid="" marker-end="" id="svg_38" points="14.093024050112703,42.130231541024514 14.20930311472236,42.130231541024514 14.325582179332017,42.130231541024514 14.325582179332017,42.24651060563417 14.441861243941673,42.36278967024384 " style="color: rgb(0, 0, 0);"/></g></svg>